<svg width="127" height="37" viewBox="0 0 127 37" fill="none" xmlns="http://www.w3.org/2000/svg">
<path d="M0 19.4714C0 25.9951 4.71277 30.7542 11.1393 30.7542C16.5375 30.7542 20.6505 27.3868 21.4217 22.9072L16.0663 21.9939C15.5093 24.2554 13.7956 25.7341 11.0964 25.7341C7.84034 25.7341 5.65533 23.3421 5.65533 19.4714C5.65533 15.5573 7.96887 13.1653 11.1821 13.1653C13.5814 13.1653 15.2951 14.5135 15.852 16.862L21.336 15.8617C20.3078 11.2082 16.4519 8.07686 11.225 8.07686C4.75561 8.07686 0 12.9043 0 19.4714Z" fill="white"/>
<path d="M37.4757 30.7542H42.2742V17.2099C42.2742 11.1212 38.5468 8.07686 32.8486 8.07686C27.4504 8.07686 24.0229 10.9472 22.9518 15.0789L28.1359 16.0357C28.7357 13.8176 30.3209 12.7304 32.7629 12.7304C34.9479 12.7304 36.4046 13.6437 36.8759 15.8182L31.392 17.0794C26.8934 18.1232 23.1232 19.8629 23.1232 24.3424C23.1232 28.5175 26.2079 30.7542 30.0638 30.7542C33.0628 30.7542 35.3458 29.8222 37.0901 27.3433L37.4757 30.7542ZM28.65 23.951C28.65 22.3418 29.9353 21.6895 31.7347 21.2546L37.0044 19.9498V20.4282C37.0044 24.3859 34.0911 26.256 31.2206 26.256C29.6782 26.256 28.65 25.4732 28.65 23.951Z" fill="white"/>
<path d="M54.1908 30.7542C60.3174 30.7542 63.3164 27.6912 63.3164 23.5596C63.3164 18.4712 58.8179 17.6883 55.2619 17.1229C52.777 16.7315 50.849 16.3836 50.849 14.7744C50.849 13.4697 52.1343 12.5564 54.2336 12.5564C56.1616 12.5564 57.4469 13.3827 57.8753 15.2528L63.2736 14.1221C62.0311 10.2514 59.1178 8.07686 54.2336 8.07686C49.0496 8.07686 45.2794 10.9907 45.2794 15.0354C45.2794 20.0368 49.3066 20.9936 52.8198 21.559C55.3904 22.0374 57.7039 22.2548 57.7039 23.9075C57.7039 25.4297 56.3758 26.2995 54.1908 26.2995C52.0058 26.2995 50.4206 25.3862 49.9921 23.1247L44.4225 24.2554C45.6221 28.9089 49.3923 30.7542 54.1908 30.7542Z" fill="white"/>
<path d="M65.5672 30.7542H71.0083V18.1791C71.0083 14.5259 73.4932 13.3082 75.7639 13.3082C78.2916 13.3082 80.0911 14.9608 80.0911 18.1791V30.7542H85.5322V17.3093C85.5322 11.3076 81.6763 8.07686 77.092 8.07686C74.5643 8.07686 72.5506 9.17655 71.0083 10.6552V0H65.5672V30.7542Z" fill="white"/>
<path d="M105.578 25.9988H96.7024C103.401 21.1478 105.239 18.4836 105.239 15.2694C105.239 11.257 102.275 8.07686 96.9372 8.07686C92.3997 8.07686 88.7297 10.2762 87.8289 14.4967L93.5674 15.5666C93.8344 13.8725 95.0021 12.8323 96.8037 12.8323C98.5052 12.8323 99.6062 13.8131 99.6062 15.3883C99.6062 17.3963 98.0807 19.4413 91.3976 24.4791L87.8289 26.7715V30.7542H105.578V25.9988Z" fill="white"/>
<path d="M21.4523 32.9287V36.9672H0.0306321L0.0306323 32.9287H21.4523Z" fill="white"/>
<path d="M112.893 8.07686H107.414V21.9229C107.414 27.8252 111.168 30.7542 115.611 30.7542C118.545 30.7542 120.4 29.8222 121.823 28.1359L122.082 30.7542H127V8.07686H121.521V20.8578C121.521 24.3637 119.235 25.5619 117.121 25.5619C114.403 25.5619 112.893 24.1418 112.893 21.3904V8.07686Z" fill="white"/>
<path d="M122.937 1.14163H124.404C124.712 1.14163 124.963 1.21127 125.157 1.35053C125.351 1.4869 125.448 1.70451 125.448 2.00335C125.448 2.18904 125.404 2.34862 125.314 2.48209C125.224 2.61265 125.097 2.70695 124.935 2.76498C125.01 2.78238 125.076 2.8085 125.131 2.84331C125.186 2.87813 125.228 2.91585 125.257 2.95647C125.289 2.99709 125.315 3.04932 125.335 3.11315C125.356 3.17698 125.369 3.23356 125.374 3.28288C125.383 3.3293 125.39 3.39168 125.396 3.47002C125.399 3.49033 125.402 3.5295 125.405 3.58753C125.411 3.64556 125.414 3.68473 125.414 3.70504C125.417 3.72245 125.419 3.75436 125.422 3.80078C125.428 3.84721 125.433 3.88057 125.435 3.90088C125.438 3.91829 125.443 3.94585 125.448 3.98357C125.457 4.01839 125.464 4.04595 125.47 4.06626C125.476 4.08367 125.483 4.10543 125.492 4.13155C125.501 4.15476 125.511 4.17507 125.522 4.19248C125.534 4.20988 125.547 4.22584 125.562 4.24035H124.978C124.97 4.22874 124.961 4.21569 124.952 4.20118C124.947 4.18377 124.941 4.16636 124.935 4.14895C124.929 4.12864 124.925 4.11124 124.922 4.09673C124.919 4.07932 124.915 4.05756 124.909 4.03145C124.906 4.00243 124.903 3.97922 124.9 3.96181C124.9 3.9444 124.899 3.91829 124.896 3.88347C124.893 3.84866 124.89 3.82254 124.887 3.80514C124.887 3.78773 124.886 3.75726 124.883 3.71374C124.88 3.67022 124.878 3.63975 124.878 3.62235C124.864 3.36992 124.81 3.19729 124.717 3.10444C124.627 3.0087 124.455 2.96082 124.2 2.96082H123.477V4.24035H122.937V1.14163ZM123.477 1.58555V2.55607H124.195C124.3 2.55607 124.388 2.55027 124.461 2.53867C124.533 2.52706 124.606 2.50675 124.678 2.47774C124.754 2.44582 124.81 2.39505 124.848 2.32541C124.889 2.25578 124.909 2.16728 124.909 2.05993C124.909 1.96128 124.891 1.88004 124.857 1.81621C124.822 1.74948 124.771 1.70015 124.704 1.66824C124.64 1.63632 124.574 1.61456 124.504 1.60296C124.437 1.59135 124.358 1.58555 124.265 1.58555H123.477Z" fill="white"/>
<path fill-rule="evenodd" clip-rule="evenodd" d="M124.169 5.00144C125.412 5.00144 126.419 3.97919 126.419 2.71817C126.419 1.45716 125.412 0.434908 124.169 0.434908C122.927 0.434908 121.92 1.45716 121.92 2.71817C121.92 3.97919 122.927 5.00144 124.169 5.00144ZM124.169 5.43635C125.648 5.43635 126.847 4.21938 126.847 2.71817C126.847 1.21697 125.648 0 124.169 0C122.69 0 121.492 1.21697 121.492 2.71817C121.492 4.21938 122.69 5.43635 124.169 5.43635Z" fill="white"/>
</svg>
